<svg id="Ebene_1" data-name="Ebene 1" xmlns="http://www.w3.org/2000/svg" viewBox="0 0 222.32 286.11">
  <defs>
    <style>
      .cls-1, .cls-3, .cls-5 {
        fill: #233d7a;
      }

      .cls-1 {
        stroke: #ea6e00;
        stroke-miterlimit: 10;
        stroke-width: 2px;
      }

      .cls-10, .cls-2 {
        fill: #fff;
      }

      .cls-10, .cls-3, .cls-6, .cls-7, .cls-8 {
        fill-rule: evenodd;
      }

      .cls-4, .cls-8 {
        fill: #ea6e00;
      }

      .cls-6, .cls-9 {
        fill: #c0c0bf;
      }

      .cls-7 {
        fill: #ff8022;
      }
    </style>
  </defs>
  <title>BF2 Logo Oranje Buitenkant</title>
  <g id="Лого_на_груди" data-name="Лого на груди">
    <g>
      <path class="cls-1" d="M237.65,62.7c0,104.61-11.54,176.54-109.18,246.83l-.48.33-.5-.33C29.85,239.24,17.33,167.31,17.33,62.7c70.42,4.92,110.16-36.3,110.16-36.3S167.23,67.62,237.65,62.7Z" transform="translate(-16.33 -24.96)"/>
      <path class="cls-2" d="M127.36,50c4.75,5.36,33.78,34.88,93.63,30.72,0,88.5-9.81,149.35-92.8,208.82l-.41.28-.42-.28c-83-59.47-93.64-120.32-93.64-208.82C93.58,84.88,122.61,55.36,127.36,50" transform="translate(-16.33 -24.96)"/>
    </g>
    <polygon class="cls-2" points="166.15 196.19 156.79 196.19 150.88 201.1 150.75 217.85 157.05 223.47 168.28 223.47 173.84 218.19 173.84 201.83 166.15 196.19"/>
    <g>
      <polygon class="cls-2" points="77.98 145.12 21.33 145.12 21.33 165.92 29.46 168.01 29.16 198.91 22.03 201.62 22.03 222.07 78.03 222.07 94.09 209.1 94.09 186.44 89.19 182.18 94.09 177.63 94.09 158.02 77.98 145.12"/>
      <path class="cls-3" d="M231.21,202.13c-.9-2.7-2.51-5-3.86-7.5a87.16,87.16,0,0,0-7-11,125,125,0,0,0-13-14.62c-3.56-3.43-8.16-8.36-10.41-12.82-1.82-3.63-8.41-16.7-11.77-19,1-1.37,2.72-1.3,3.81-2.23,3.38-2.9,1.74-4.63,4.57-8.19,3.63-4.55,3.86-10.65,3-15.82-.38-2.17-3-11.33-8.05-17-7.82-8.67-15-15-21.71-19-10.67-6.4-31.88-10.12-32.54-9.67,3.91,1.07,22.34,4.44,32.3,12.15,26.28,20.37,23.13,27.17,25.73,34.44,1.45,4.08,1.07,9-2.21,12.37-4.52,4.71-6.62,7.19-11.57,8.53-2.32-3.89-6.9-7.69-8.16-8.64s-6.07,4.8-9.08,8.41a32,32,0,0,1-4.56-1.77c-7.12-3.44-12.79-8-15.5-15.76-.84-2.43-2-5-5.21-6.71.29.89,1.58,2.06,1.94,3.16.56,1.67.13,3.18-.08,3.21-.66.08-1.4-1.37-1.78-1.78a59.2,59.2,0,0,0-10-8.41,82.13,82.13,0,0,0-13.68-7.62c-.6-.27-10.72-5-14-5.26,0,.23,14.75,7.88,16.57,9.32,3.81,3,7.75,6.08,10.16,10.51,1.12,2.06,1.92,4.2.92,6.6-1,.52-2,.06-3.21.32,2.12,2.51,5.73,5.15,7.24,8a5.5,5.5,0,0,1,1-2.62,10,10,0,0,1,2.73-2.24,45.27,45.27,0,0,0-3.19-4.39,12.48,12.48,0,0,1,3.31,2.36c1.48,1.36,2.83,3.19,3.54,3.83a13.27,13.27,0,0,0,1,1.1c-.19.1-1,.55-1.51.88-2.39,1.62-2.11,5.28-.35,7,2.41,2.4,5.84,3.1,8.17.65a13.23,13.23,0,0,0,1.2-1.6c.41.25,1.19.71,1.48.9a8.92,8.92,0,0,0,3,1.47,4.23,4.23,0,0,1-2.8.57c-.26,2-.71,3.61-2.54,4.95-3.07,2.26-6.32,2.35-9.77,1.86-1-.13-1.9-.59-3.14.11,4.84,2.62,9.83,1.48,14.72,1.56a30.2,30.2,0,0,1-13,4.24c-2.12.13-4.26.07-6.39,0-5.93-.17-11.44-2-16.93-4.08-1.87-.71-4.72-2.19-7.23-1.65,1,1.5,3.89,2.07,4.29,3.81l0,.05c.91.28,3.38,4.19,3.2,5.87-2.29-1.49-4.55-3-6.84-4.52-1-.64-2-1.39-3.29-1.13.53.64,1.11,1.26,1.59,2,1.16,1.67,1.22,7.46,4.07,9.8.71.58,3.47,1.64,4.9,2.76,1.73,1.35,2.34,1.67,3,5.76a7.83,7.83,0,0,0,3.71,4.84,28.94,28.94,0,0,0,7.12,2.61l.15,0a14.58,14.58,0,0,1,3.11,1.52c2.82,1.95,6,5.28,11.42,9.67,20.95,16.95,56.24,46.32,59.24,46.7.07.94.07,1.89,0,2.83,0,1.2-.8,4.89-.53,5.52,1.72,1.11,11.11-3.73,14.5-5.41,4.27-2.1,7.79-5.21,11.43-8.14,3.17-2.56,6-5.7,7.26-9.58A22.71,22.71,0,0,0,231.21,202.13Z" transform="translate(-16.33 -24.96)"/>
      <g>
        <polygon class="cls-2" points="145.5 195.04 146.53 190.81 146.53 187.16 153.97 187.16 153.97 192.43 150.43 197.37 145.5 195.04"/>
        <path class="cls-4" d="M169.17,213.25V217l-.32.44-1.63,2.28-.82,1.15-1.28-.61-.71-.33-1.26-.59.33-1.35.52-2.12v-2.65h5.17m2.26-2.25h-9.69v4.63l-.46,1.85-.32,1.35-.44,1.79,1.67.79,1.25.59.72.34,1.27.6,1.71.8,1.1-1.53.82-1.15,1.63-2.28.31-.44.43-.58V211Z" transform="translate(-16.33 -24.96)"/>
      </g>
      <path class="cls-4" d="M184.35,222.24l.48.39,4.14,3.46.62.51v6.51h-1.87l1.46,1.13.65.51v7.75l-.62.5-4.36,3.62-.47.38H174l-.47-.39-4.33-3.6-.61-.51v-6.37h2.52l-1.91-1.58-.61-.5v-7.43l.6-.51,4.16-3.48.46-.39h10.58m.82-2.26H173l-.62.53-.48.39-4.14,3.48-.62.51-.81.68v18l.82.67.61.52,4.34,3.6.47.39.63.53h12l.63-.52.47-.39,4.37-3.61.61-.52.82-.67v-9.91l-.24-.19v-7.92l-.82-.68-.61-.51-4.15-3.45-.47-.39-.63-.53Z" transform="translate(-16.33 -24.96)"/>
      <path class="cls-4" d="M148.44,199.91v18.43H138.19v9.88h-10.3v4.42l4.56,1,1.33.29v12.32H107.19V233.92l1.27-.33,3.4-.89V213.53l-3.4-.89-1.27-.34V199.91h41.25m-20.55,17.55h8.3l-.1-.37-.88-3.23h-7.32v3.6m22.81-19.81H104.94v16.4l1.68.44,1.26.33,1.72.45V231l-1.72.45-1.26.33-1.68.44v16.33H136v-16.4l-1.78-.39-1.33-.29-2.78-.61v-.35h10.3V220.6H150.7V197.65Z" transform="translate(-16.33 -24.96)"/>
      <path class="cls-5" d="M137.73,216.64l-1.23-4.48H126.19v7H136.5v7.37H126.19V234l5.89,1.28v9.27H108.89v-9.33l4.66-1.22V212.22L108.89,211v-9.39h37.86v15Z" transform="translate(-16.33 -24.96)"/>
      <path class="cls-6" d="M136.11,181.36c-3.37-2.92-5.7-5.19-7.84-6.67a13,13,0,0,0-2.6-1.32,12.19,12.19,0,0,1,.92,3,58.66,58.66,0,0,1-.45,14.42c-1.26-1-1.39-5.89-4.11-6.49-3.48-.75-5,3.78-6.29,6.71-2.75,6.28-4.59,18.11-3,29.37,2.83,20.05,7.49,37.9,7.28,33.16,0-.93-4.39-32.09-3.8-44.22.53-10.82,5.24-16.81,5.57-17.15-2.51,7.25,7.74,19.81,8.06,18.24.46-2.23-1.06-12.85,2.9-22.59A53.38,53.38,0,0,1,136.11,181.36Z" transform="translate(-16.33 -24.96)"/>
      <path class="cls-4" d="M157.4,221.67l.47.4,4.15,3.48.61.51v7.42l-.62.5-1.95,1.61h2.57v10.85H141.34V234.19l.65-.51,1.46-1.13h-1.86V226l.6-.51,4.16-3.46.47-.4H157.4m.82-2.26H146l-.62.53-.48.39-4.15,3.46-.61.51-.81.67v7.92l-.25.19V248.7h25.81V225l-.81-.67-.61-.51-4.15-3.49-.47-.39-.63-.53Z" transform="translate(-16.33 -24.96)"/>
      <path class="cls-5" d="M143.28,226.83l4.16-3.46h9.34l4.15,3.48v5.83l-3.63,3L150,236.89l-.58.53v2.07h5.25l.61-2.2h5.68v7.46H143V235l3.57-2.78L154,231l.67-.53v-1.25l-.79-.61H149.6l-.61,2.23h-5.71Z" transform="translate(-16.33 -24.96)"/>
      <path class="cls-3" d="M231.21,202.13c-.9-2.7-2.51-5-3.86-7.5a87.16,87.16,0,0,0-7-11,125,125,0,0,0-13-14.62c-3.56-3.43-8.16-8.36-10.41-12.82-1.82-3.63-8.41-16.7-11.77-19,1-1.37,2.72-1.3,3.81-2.23,3.38-2.9,1.74-4.63,4.57-8.19,3.63-4.55,3.86-10.65,3-15.82-.38-2.17-3-11.33-8.05-17-7.82-8.67-15-15-21.71-19-10.67-6.4-31.88-10.12-32.54-9.67,3.91,1.07,22.34,4.44,32.3,12.15,26.28,20.37,23.13,27.17,25.73,34.44,1.45,4.08,1.07,9-2.21,12.37-4.52,4.71-6.62,7.19-11.57,8.53-2.32-3.89-6.9-7.69-8.16-8.64s-6.07,4.8-9.08,8.41a32,32,0,0,1-4.56-1.77c-7.12-3.44-12.79-8-15.5-15.76-.84-2.43-2-5-5.21-6.71.29.89,1.58,2.06,1.94,3.16.56,1.67.13,3.18-.08,3.21-.66.08-1.4-1.37-1.78-1.78a59.2,59.2,0,0,0-10-8.41,82.13,82.13,0,0,0-13.68-7.62c-.6-.27-10.72-5-14-5.26,0,.23,14.75,7.88,16.57,9.32,3.81,3,7.75,6.08,10.16,10.51,1.12,2.06,1.92,4.2.92,6.6-1,.52-2,.06-3.21.32,2.12,2.51,5.73,5.15,7.24,8a5.5,5.5,0,0,1,1-2.62,10,10,0,0,1,2.73-2.24,45.27,45.27,0,0,0-3.19-4.39,12.48,12.48,0,0,1,3.31,2.36c1.48,1.36,2.83,3.19,3.54,3.83a13.27,13.27,0,0,0,1,1.1c-.19.1-1,.55-1.51.88-2.39,1.62-2.11,5.28-.35,7,2.41,2.4,5.84,3.1,8.17.65a13.23,13.23,0,0,0,1.2-1.6c.41.25,1.19.71,1.48.9a8.92,8.92,0,0,0,3,1.47,4.23,4.23,0,0,1-2.8.57c-.26,2-.71,3.61-2.54,4.95-3.07,2.26-6.32,2.35-9.77,1.86-1-.13-1.9-.59-3.14.11,4.84,2.62,9.83,1.48,14.72,1.56a30.2,30.2,0,0,1-13,4.24c-2.12.13-4.26.07-6.39,0-5.93-.17-11.44-2-16.93-4.08-1.87-.71-4.72-2.19-7.23-1.65,1,1.5,7.65,8,7.47,9.73-2.29-1.49-4.55-3-6.84-4.52-1-.64-2-1.39-3.29-1.13.53.64,1.11,1.26,1.59,2,1.16,1.67,1.22,7.46,4.07,9.8.71.58,3.47,1.64,4.9,2.76,1.73,1.35,2.34,1.67,3,5.76a7.83,7.83,0,0,0,3.71,4.84,28.94,28.94,0,0,0,7.12,2.61l.15,0a14.58,14.58,0,0,1,3.11,1.52c2.82,1.95,6,5.28,11.42,9.67,20.95,16.95,56.24,46.32,59.24,46.7.07.94.07,1.89,0,2.83,0,1.2-.8,4.89-.53,5.52,1.72,1.11,11.11-3.73,14.5-5.41,4.27-2.1,7.79-5.21,11.43-8.14,3.17-2.56,6-5.7,7.26-9.58A22.71,22.71,0,0,0,231.21,202.13Z" transform="translate(-16.33 -24.96)"/>
      <path class="cls-3" d="M144.47,138.13c-2.61-.14-6.17.82-10.9-2.36-2.09-1.4-3.18-4.45-3.48-6a3.17,3.17,0,0,1-3.34-.54c-1-.76-1.24,0-1.32.88C127.92,138.22,139.26,142.23,144.47,138.13Z" transform="translate(-16.33 -24.96)"/>
      <path class="cls-5" d="M165.84,218.76l-.71-.34.56-2.32V215h1.78v1.54Z" transform="translate(-16.33 -24.96)"/>
      <path class="cls-7" d="M228.41,210.74a23.55,23.55,0,0,0-1.11-5.66,45.34,45.34,0,0,0-6.57-13.25c-5.61-7.85-12.37-14.76-18.61-22.09-2.62-3.07-5.24-6.15-7.8-9.27-2.75-3.34-4.39-7.26-6.54-10.9a23.57,23.57,0,0,0-5.28-6.43h0l-.29-.23c-2.13-2.21-10.08-18.79-13.93-13.11a53,53,0,0,1-9.43,10.33h0a14.71,14.71,0,0,0-2.65,2c-6.38,5.86-14.23,8.76-22.83,9.58a55.47,55.47,0,0,1-19.42-2.05c-1-.29-2.54,2-1.61,4a43.55,43.55,0,0,1,3.44,5.93c1.36,3.14-.43,5.13,2.4,7.25a11.78,11.78,0,0,0,2.8,1.26c4.27,1.18,4.52,1,6.75,2.79,13.81,11.56,41.79,33,45.82,36.92,3.45,3.38,28.07,22.79,27,20s-1.08-2.75-4.85-8.66c-1.82-2.85-15.85-15.43-33.13-30.46-3.51-3.07-7-6.1-10.36-9s-6.15-5.29-8.44-7.25l-3.63-3.08-.12-.11s-14.81-12.06-18.73-13c-1.81-.44-2.22-1.94-.44-1.49,3.45.88,12,5.68,14.2.71.43-1,.24,2.05.48,2.88a42.06,42.06,0,0,0,5.17,7.62c3.33,4.36,7.59,7.75,11.75,11.26,4.59,3.88,9.28,7.63,14,11.39,4,3.21,7.66,6.72,11.41,10.16,3.44,3.15,14.89,12.47,15.45,13,1.46,1.46,2.89,2.93,4.27,4.44a29.78,29.78,0,0,1,5.18,8.63c1,2.75,1,7.46,1.12,10.87,7.91-2.45,20-12.48,20.83-13.66C226.67,219.36,228.63,214.56,228.41,210.74Zm-51-58.08a3,3,0,0,1-3.34-1c-3.72-4.2-9.11-5.36-13.91-8,2.51-.94,5.25-.18,7.61-1.52,3,3.41,7,5.76,9.84,9.28C177.82,151.7,177.74,152.14,177.4,152.66Z" transform="translate(-16.33 -24.96)"/>
      <path class="cls-8" d="M120.06,155.69c1.52.22,9.28,4.46,19.94,13.55,4.55,3.89,10.67,9.08,22.28,19.18,17.4,15.13,31.57,27.82,33.4,30.7,3.77,5.9,3.77,5.9,4.85,8.65,0,0-34.32-31.13-36.2-32.81C158.81,190,120.06,155.69,120.06,155.69Z" transform="translate(-16.33 -24.96)"/>
      <path class="cls-8" d="M179.24,200.08c3,1,15.53,11.36,16.21,12,5.94,5.93,8.45,8.46,12.54,16.06,4.51-2.43,16.71-4.3,17.7-23.66,2.4,9,.19,15.77-1,17.61-2,3-13,11.3-20.9,13.75-.08-3.41-.21-8.18-1.19-10.93-1.79-5-4.17-7.65-7.84-11.44C193.88,212.65,180.86,201.75,179.24,200.08Z" transform="translate(-16.33 -24.96)"/>
      <path class="cls-9" d="M177.2,114.76c-1.64,2.67-2.78,5.57-4.41,8.19-.48-3.4-3.88-10-5.15-13.14A122.29,122.29,0,0,1,166,122.18c-2.59-1.68-6.44-2.54-9.14-3.74,2.37,2.79,5.75,6.65,8,9.9,2.37-2.59,4.72-4.77,5.44-4.23a43.44,43.44,0,0,1,4.93,4.49c.53-1.4.85-2.61,1.07-3.23C177.35,122.32,176.87,118,177.2,114.76Z" transform="translate(-16.33 -24.96)"/>
      <path class="cls-9" d="M104,146.54c2.28,1.49,4.56,3,6.84,4.52v-.43a13.66,13.66,0,0,0-3.2-5.44c-1.64-1.81-3.78-3.15-4.27-3.86,2.51-.54,5.36.94,7.23,1.65l2.13.8c-1.74-4-6.4-6.47-7.72-7.41-2.64-1.87-7-2.57-10-3.74,2.58,2.76,5.59,5.06,7.85,8.05-3.74-1.38-8.74-2.76-10.87-3.51,2.86,2.86,6.29,5,8.7,8.24C102,145.15,103,145.9,104,146.54Z" transform="translate(-16.33 -24.96)"/>
      <path class="cls-9" d="M103.26,150.41c-3.36-.78-6.46-2-9.91-2.7,2.6,2.19,5,5.87,8.43,7.35.82.36,2.41,1.27,4.49,2C104.49,155.59,103.81,152.72,103.26,150.41Z" transform="translate(-16.33 -24.96)"/>
      <path class="cls-7" d="M134.54,123a9,9,0,0,0-1.53,5.61,8.74,8.74,0,0,0,4.66,6.72c3.44,1.69,8,1.25,10.11-2.8l-.39-.24c-.29-.19-1.07-.65-1.48-.9a13.23,13.23,0,0,1-1.2,1.6c-2.33,2.45-5.76,1.75-8.17-.65-1.76-1.76-2-5.42.35-7,.48-.33,1.32-.78,1.51-.88a13.27,13.27,0,0,1-1-1.1c-.34-.3-.82-.88-1.39-1.53A4.42,4.42,0,0,0,134.54,123Z" transform="translate(-16.33 -24.96)"/>
      <path class="cls-9" d="M126.34,129a1.17,1.17,0,0,1,.41.24,3.17,3.17,0,0,0,3.34.54,15.47,15.47,0,0,1-.09-3.47c-1.51-2.88-5.1-5.51-7.21-8,1.18-.26,2.25.2,3.21-.32,1-2.4.2-4.54-.92-6.6-2.41-4.43-6.35-7.48-10.16-10.51-1.17-.93-7.74-4.46-12.24-6.9-.07.51,9.31,6.3,10.76,7.36,3.48,2.57,7.47,9.06,8,12.9a51.81,51.81,0,0,1-6-2c-2-.87-5.55-.73-4.95-.39,6.35,3.64,12.26,11.15,14.94,18.1C125.54,129.33,125.75,128.79,126.34,129Z" transform="translate(-16.33 -24.96)"/>
      <path class="cls-5" d="M187.89,231.41h-5.71l-.61-2.22h-4.25l-.79.61v1.25l.67.52,7.36,1.23,3.57,2.78v6.12l-4.36,3.61h-9.19l-4.34-3.61v-3.87H176l.61,2.22H181l.76-.63V238l-.57-.51-7.34-1.22-3.63-3v-5.84l4.15-3.48h9.35l4.15,3.46Z" transform="translate(-16.33 -24.96)"/>
      <path class="cls-10" d="M125.67,173.37l-.51-.2-.15,0a28.94,28.94,0,0,1-7.12-2.61,8.51,8.51,0,0,1-3.38-3.78c-17.17-2.67-15.1,81.77-15.1,81.77,9.45,8.69,16,6.67,18,3.28a8.19,8.19,0,0,0,.88-2.42,292,292,0,0,1-5.54-29c-1.59-11.26.25-23.09,3-29.37,1.28-2.93,2.81-7.46,6.29-6.71,2.72.6,2.85,5.53,4.11,6.49a58.66,58.66,0,0,0,.45-14.42A12.19,12.19,0,0,0,125.67,173.37Z" transform="translate(-16.33 -24.96)"/>
      <path class="cls-4" d="M93.82,171.13l.47.39,13.9,11.66.61.51v18.76l-.62.51L103,207.18l5.57,4.62.62.5v20.82l-.62.51L94.08,245.69l-.47.39H39V227.54l1.27-.33,6.5-1.72V191.82l-6.5-1.72L39,189.77V171.13H93.82M71.28,199.65H83.17l1.38-1.16v-5.23l-1.38-1.15H71.28v7.54m0,25.45H83.19l1.57-1.26v-7.18l-1.37-1.15H71.28v9.59m23.57-56.8H36.13V192l2.11.55,1.26.33L43.9,194v29.32l-4.4,1.17-1.26.33-2.11.55V248.9h58.5l.78-.65.47-.39L110.4,235.8l.61-.51,1-.85V211l-1-.85-.61-.51-2.93-2.43,2.5-2,.62-.51,1-.84V182.37l-1-.85L110,181,96.1,169.36l-.47-.4-.78-.66ZM74.1,194.93h7.63v1.89H74.1v-1.89Zm0,23.41h7.83v3.95H74.1v-3.95Z" transform="translate(-16.33 -24.96)"/>
      <path class="cls-5" d="M100.36,207.17l7.15,5.93v19.22L93,244.39H40.65V228.84l7.77-2V190.51l-7.77-2V172.82H93.2l13.9,11.66v17.17Zm-30.78-5.82H83.8l2.45-2.07v-6.81l-2.45-2.06H69.58Zm0,25.45H83.8l2.65-2.14v-8.8l-2.45-2H69.58Z" transform="translate(-16.33 -24.96)"/>
    </g>
  </g>
</svg>
