<?xml version="1.0" standalone="no"?>
<!DOCTYPE svg PUBLIC "-//W3C//DTD SVG 20010904//EN"
 "http://www.w3.org/TR/2001/REC-SVG-20010904/DTD/svg10.dtd">
<svg version="1.0" xmlns="http://www.w3.org/2000/svg"
 width="567.000000pt" height="567.000000pt" viewBox="0 0 567.000000 567.000000"
 preserveAspectRatio="xMidYMid meet">
<metadata>
Created by potrace 1.14, written by Peter Selinger 2001-2017
</metadata>
<g transform="translate(0.000000,567.000000) scale(0.100000,-0.100000)"
fill="#000000" stroke="none">
<path d="M2743 5587 c-80 -71 -205 -167 -216 -167 -3 0 -38 -22 -78 -50 -40
-27 -76 -50 -81 -50 -4 0 -29 -13 -55 -29 -58 -35 -299 -147 -357 -166 -22 -7
-81 -27 -131 -45 -105 -36 -283 -80 -442 -109 -170 -31 -350 -43 -561 -39
l-192 3 0 -80 c0 -211 22 -769 40 -1021 19 -264 52 -529 100 -794 49 -275 174
-704 264 -907 20 -45 36 -84 36 -87 0 -3 25 -58 56 -122 42 -88 54 -125 52
-153 l-3 -36 -77 -19 -78 -19 0 -233 0 -234 263 0 262 0 55 -72 c55 -72 94
-118 199 -237 71 -82 317 -331 397 -402 111 -99 284 -245 357 -301 195 -149
277 -208 289 -207 20 1 245 170 412 311 54 46 124 104 156 129 67 55 393 379
465 463 91 106 140 163 171 202 57 72 150 199 183 252 18 28 40 52 48 52 28 0
278 122 342 168 148 105 245 206 266 276 43 145 25 259 -66 422 -33 59 -64
113 -68 118 -5 7 -1 36 10 71 10 33 41 150 68 260 127 518 179 1010 197 1885
l7 315 -274 1 c-305 1 -407 12 -688 78 -238 56 -555 177 -712 272 -31 19 -60
34 -63 34 -14 0 -299 192 -326 220 -17 17 -139 120 -142 120 -1 -1 -40 -33
-85 -73z m171 -494 c91 -86 189 -157 341 -246 55 -33 92 -57 83 -54 -9 3 -72
19 -140 36 -177 43 -248 49 -93 7 354 -94 492 -173 746 -426 166 -165 189
-204 256 -440 24 -86 23 -164 -4 -215 -40 -77 -205 -216 -255 -215 -7 0 -26
19 -43 41 -16 23 -53 61 -82 86 -51 44 -52 44 -78 27 -14 -9 -55 -49 -90 -88
l-64 -70 -103 51 c-152 76 -237 165 -290 306 -18 48 -71 117 -90 117 -4 0 1
-15 12 -32 19 -31 27 -78 14 -78 -3 0 -42 34 -86 75 -99 93 -215 171 -366 245
-114 56 -310 135 -318 127 -2 -2 68 -43 155 -91 180 -100 281 -179 340 -267
63 -94 66 -158 8 -169 -25 -5 -23 -7 44 -77 66 -70 69 -72 80 -50 6 12 23 32
38 44 l26 21 -23 32 c-34 45 -22 46 28 2 l44 -38 -22 -22 c-68 -68 -40 -197
52 -241 68 -33 120 -27 173 21 18 17 27 18 50 10 l28 -10 -27 -7 c-19 -5 -30
-17 -38 -41 -23 -70 -113 -109 -225 -98 -36 4 -65 4 -65 0 0 -16 63 -29 165
-35 l110 -6 -85 -34 c-75 -30 -98 -35 -201 -39 -137 -5 -231 11 -378 64 -119
44 -170 58 -178 50 -3 -3 18 -29 48 -58 47 -46 94 -116 85 -126 -2 -1 -39 20
-82 48 -74 47 -104 59 -104 43 0 -3 6 -14 14 -22 8 -9 21 -45 30 -81 21 -82
39 -107 109 -147 68 -41 92 -70 101 -124 10 -65 72 -121 164 -149 84 -26 110
-42 235 -148 100 -86 813 -667 916 -747 l64 -50 -110 -5 -111 -5 -60 -50 -61
-50 0 -177 -1 -176 70 -61 71 -61 -100 -108 c-108 -118 -320 -315 -471 -438
-170 -138 -331 -254 -343 -247 -22 12 -211 155 -287 217 -194 156 -532 475
-591 558 l-20 28 123 0 124 0 172 143 172 142 0 235 0 234 -42 38 -43 38 38
31 37 31 0 216 -1 217 -165 138 -165 137 -529 0 c-495 0 -529 1 -534 18 -37
131 -92 524 -116 831 -11 143 -34 854 -28 870 2 6 110 12 263 14 264 5 362 15
565 59 342 73 726 264 945 472 44 41 82 75 84 76 2 0 40 -35 85 -77z m742
-417 c228 -77 455 -110 778 -110 l249 -1 -6 -360 c-10 -533 -41 -885 -113
-1260 -51 -271 -32 -254 -150 -133 -138 142 -174 190 -246 331 -35 67 -91 164
-125 215 -35 52 -63 95 -63 97 0 1 13 8 29 15 40 16 76 58 91 105 7 22 24 55
38 74 108 145 78 405 -72 614 -78 111 -308 321 -440 406 -28 17 -48 31 -45 31
3 0 37 -11 75 -24z m-1341 -2027 l145 -121 -1 -191 0 -192 -55 -43 -54 -43 60
-50 60 -51 0 -208 0 -208 -157 -132 -158 -132 -254 6 c-140 3 -384 6 -543 6
l-288 0 2 183 3 182 75 21 75 21 0 334 0 334 -74 17 c-40 9 -75 18 -77 21 -2
2 -1 85 3 185 l6 182 544 0 544 0 144 -121z m1696 -931 l49 -43 0 -67 c0 -45
-4 -68 -12 -68 -6 0 -4 -7 5 -18 13 -14 17 -38 17 -90 l0 -70 -54 -46 -53 -46
-108 0 -108 0 -53 43 -53 42 -1 68 c0 63 1 67 23 68 l22 0 -22 16 c-20 14 -23
24 -23 92 l0 76 53 42 52 43 108 0 108 0 50 -42z"/>
<path d="M2794 3595 c-7 -17 34 -90 68 -122 12 -12 49 -34 81 -48 67 -31 157
-37 197 -14 24 13 21 14 -45 20 -38 3 -79 9 -90 14 -44 18 -88 60 -107 101
-15 34 -24 44 -43 44 -13 0 -27 5 -30 10 -9 15 -25 12 -31 -5z"/>
<path d="M2650 2220 c0 -16 7 -20 33 -20 38 0 48 6 40 26 -3 8 -19 14 -39 14
-27 0 -34 -4 -34 -20z"/>
<path d="M2887 2226 c-3 -8 -3 -17 0 -20 4 -3 87 -6 185 -6 l178 0 -2 -182 -3
-183 -103 -3 -104 -3 3 -92 3 -92 -102 -3 -102 -3 0 -42 0 -43 60 -12 60 -13
0 -124 0 -125 -145 0 c-138 0 -145 -1 -145 -20 0 -19 7 -20 165 -20 l165 0 -2
162 -3 162 -53 11 c-83 19 -74 26 28 23 l94 -3 -3 -177 -3 -178 256 0 256 0 0
233 0 232 -69 58 -69 57 -71 0 -71 0 0 210 0 210 -199 0 c-161 0 -200 -3 -204
-14z m268 -435 c5 -9 -53 -61 -68 -61 -12 0 -8 45 5 58 14 14 54 16 63 3z
m322 -64 l53 -42 0 -73 c0 -64 -3 -76 -22 -93 l-23 -18 23 -1 c21 0 22 -3 22
-110 l0 -110 -215 0 -215 0 0 117 c0 94 3 120 17 135 9 11 11 18 5 18 -8 0
-12 23 -12 68 l0 67 47 42 48 42 110 1 110 0 52 -43z"/>
<path d="M3182 1702 c-36 -31 -42 -43 -42 -74 l0 -38 59 0 c50 0 59 3 64 20 4
16 14 20 51 20 33 0 48 -5 53 -15 8 -23 3 -25 -81 -40 -53 -9 -87 -21 -111
-39 l-35 -27 0 -100 0 -99 175 0 175 0 0 75 0 75 -54 0 c-46 0 -56 -3 -61 -20
-5 -17 -15 -20 -61 -20 -51 0 -55 2 -52 22 3 23 22 30 111 43 33 4 59 16 82
37 33 28 35 34 34 92 0 59 -1 62 -41 94 -39 31 -43 32 -132 32 -91 -1 -91 -1
-134 -38z"/>
<path d="M2623 2143 c-22 -78 2 -645 33 -795 l6 -28 129 0 130 0 -3 92 -3 92
-50 11 -50 10 -3 72 -3 72 98 3 98 3 3 73 3 72 -101 0 -100 0 0 70 0 70 100 0
100 0 11 -45 11 -45 89 0 89 0 0 150 0 150 -165 0 -165 0 0 -85 c0 -47 -4 -85
-9 -85 -14 0 -76 76 -102 125 l-24 45 -57 0 c-54 0 -58 -2 -65 -27z"/>
<path d="M3507 1913 c-4 -38 -9 -80 -13 -94 -5 -24 -1 -29 58 -56 l63 -30 43
59 c39 54 42 62 42 123 l0 65 -94 0 -93 0 -6 -67z m153 -10 c0 -24 -9 -51 -26
-75 -30 -42 -32 -43 -70 -26 -23 11 -25 16 -20 48 3 19 6 47 6 63 0 26 2 27
55 27 l55 0 0 -37z"/>
<path d="M3585 1869 c-4 -17 -4 -33 -1 -36 9 -9 35 28 36 50 0 29 -28 19 -35
-14z"/>
<path d="M2840 1890 l0 -30 79 0 79 0 -7 28 c-7 26 -10 27 -79 30 l-72 3 0
-31z"/>
<path d="M1110 2586 l0 -155 58 -16 c31 -9 65 -18 75 -21 16 -5 17 -29 15
-367 l-3 -362 -72 -19 -73 -19 0 -153 0 -154 519 0 519 0 146 121 146 122 0
188 0 188 -70 57 c-38 32 -70 60 -69 63 0 4 29 30 65 59 l64 53 0 168 0 168
-139 117 -139 116 -521 0 -521 0 0 -154z m875 -212 c23 -15 25 -23 25 -89 0
-68 -2 -75 -27 -95 -24 -19 -37 -20 -162 -18 l-136 3 -3 94 c-1 52 -1 100 2
108 8 21 268 18 301 -3z m5 -466 c29 -21 30 -24 30 -109 0 -86 -1 -88 -29
-109 -27 -19 -41 -20 -168 -18 l-138 3 -3 114 c-1 63 0 121 2 128 4 10 38 13
141 13 124 0 138 -2 165 -22z"/>
<path d="M1720 2285 l0 -75 118 0 c78 0 122 4 130 12 7 7 12 36 12 65 0 68
-10 73 -149 73 l-111 0 0 -75z m208 -2 c-3 -15 -16 -18 -81 -21 -72 -3 -77 -1
-77 18 0 18 6 20 81 20 71 0 80 -2 77 -17z"/>
<path d="M1722 1798 l3 -93 108 -3 c144 -4 147 -2 147 97 0 63 -3 80 -16 85
-9 3 -67 6 -130 6 l-115 0 3 -92z m208 2 l0 -40 -80 0 -80 0 0 40 0 40 80 0
80 0 0 -40z"/>
<path d="M3720 1694 c-38 -35 -40 -39 -40 -95 0 -54 3 -62 32 -88 25 -23 49
-32 108 -41 41 -7 78 -17 82 -23 14 -23 -5 -37 -52 -37 -40 0 -50 4 -55 20 -5
17 -15 20 -61 20 l-54 0 0 -39 c0 -34 6 -45 42 -75 41 -35 43 -36 129 -36 83
0 89 1 131 33 42 32 43 34 46 98 3 65 2 66 -33 93 -24 19 -58 31 -110 40 -83
15 -90 18 -82 41 5 10 20 15 53 15 37 0 47 -4 51 -20 5 -17 14 -20 64 -20 l59
0 0 38 c0 32 -6 43 -44 75 -44 37 -46 37 -135 37 -90 0 -91 0 -131 -36z"/>
</g>
</svg>
